<?xml version="1.0" encoding="UTF-8" standalone="no"?>
<!DOCTYPE svg PUBLIC "-//W3C//DTD SVG 1.1//EN"
 "http://www.w3.org/Graphics/SVG/1.1/DTD/svg11.dtd">
<!-- Generated by graphviz version 2.47.3 (20210619.1520)
 -->
<!-- Title: dependencies Pages: 1 -->
<svg width="438pt" height="247pt"
 viewBox="0.00 0.00 438.00 246.80" xmlns="http://www.w3.org/2000/svg" xmlns:xlink="http://www.w3.org/1999/xlink">
<g id="graph0" class="graph" transform="scale(1 1) rotate(0) translate(4 242.8)">
<title>dependencies</title>
<polygon fill="white" stroke="transparent" points="-4,4 -4,-242.8 434,-242.8 434,4 -4,4"/>
<text text-anchor="middle" x="215" y="-8.2" font-family="sans-serif" font-size="14.00">dependencies</text>
<g id="clust1" class="cluster">
<title>cluster_ConfigurationSummaryModule</title>
<polygon fill="none" stroke="black" stroke-dasharray="1,5" points="8,-32.8 8,-230.8 422,-230.8 422,-32.8 8,-32.8"/>
</g>
<g id="clust5" class="cluster">
<title>cluster_ConfigurationSummaryModule_exports</title>
<polygon fill="none" stroke="black" points="76,-170.8 76,-222.8 354,-222.8 354,-170.8 76,-170.8"/>
</g>
<g id="clust4" class="cluster">
<title>cluster_ConfigurationSummaryModule_imports</title>
<polygon fill="none" stroke="black" points="298,-40.8 298,-92.8 414,-92.8 414,-40.8 298,-40.8"/>
</g>
<g id="clust2" class="cluster">
<title>cluster_ConfigurationSummaryModule_declarations</title>
<polygon fill="none" stroke="black" points="16,-40.8 16,-92.8 290,-92.8 290,-40.8 16,-40.8"/>
</g>
<!-- ProductConfigurationSummaryComponent -->
<g id="node1" class="node">
<title>ProductConfigurationSummaryComponent</title>
<polygon fill="#ffffb3" stroke="black" points="281.86,-84.8 24.14,-84.8 24.14,-48.8 281.86,-48.8 281.86,-84.8"/>
<text text-anchor="middle" x="153" y="-62.6" font-family="Times,serif" font-size="14.00">ProductConfigurationSummaryComponent</text>
</g>
<!-- ConfigurationSummaryModule -->
<g id="node2" class="node">
<title>ConfigurationSummaryModule</title>
<polygon fill="#8dd3c7" stroke="black" points="311.03,-149.8 308.03,-153.8 287.03,-153.8 284.03,-149.8 118.97,-149.8 118.97,-113.8 311.03,-113.8 311.03,-149.8"/>
<text text-anchor="middle" x="215" y="-127.6" font-family="Times,serif" font-size="14.00">ConfigurationSummaryModule</text>
</g>
<!-- ProductConfigurationSummaryComponent&#45;&gt;ConfigurationSummaryModule -->
<g id="edge1" class="edge">
<title>ProductConfigurationSummaryComponent&#45;&gt;ConfigurationSummaryModule</title>
<path fill="none" stroke="black" d="M200.33,-84.91C200.33,-84.91 200.33,-103.79 200.33,-103.79"/>
<polygon fill="black" stroke="black" points="196.83,-103.79 200.33,-113.79 203.83,-103.79 196.83,-103.79"/>
</g>
<!-- ProductConfigurationSummaryComponent  -->
<g id="node4" class="node">
<title>ProductConfigurationSummaryComponent </title>
<polygon fill="#fb8072" stroke="black" points="345.86,-214.8 84.14,-214.8 84.14,-178.8 345.86,-178.8 345.86,-214.8"/>
<text text-anchor="middle" x="215" y="-192.6" font-family="Times,serif" font-size="14.00">ProductConfigurationSummaryComponent </text>
</g>
<!-- ConfigurationSummaryModule&#45;&gt;ProductConfigurationSummaryComponent  -->
<g id="edge3" class="edge">
<title>ConfigurationSummaryModule&#45;&gt;ProductConfigurationSummaryComponent </title>
<path fill="none" stroke="black" stroke-dasharray="5,2" d="M215,-149.91C215,-149.91 215,-168.79 215,-168.79"/>
<polygon fill="black" stroke="black" points="211.5,-168.79 215,-178.79 218.5,-168.79 211.5,-168.79"/>
</g>
<!-- PricingModule -->
<g id="node3" class="node">
<title>PricingModule</title>
<polygon fill="#8dd3c7" stroke="black" points="405.99,-84.8 402.99,-88.8 381.99,-88.8 378.99,-84.8 306.01,-84.8 306.01,-48.8 405.99,-48.8 405.99,-84.8"/>
<text text-anchor="middle" x="356" y="-62.6" font-family="Times,serif" font-size="14.00">PricingModule</text>
</g>
<!-- PricingModule&#45;&gt;ConfigurationSummaryModule -->
<g id="edge2" class="edge">
<title>PricingModule&#45;&gt;ConfigurationSummaryModule</title>
<path fill="none" stroke="black" d="M305.93,-66.8C298.88,-66.8 293.97,-66.8 293.97,-66.8 293.97,-66.8 293.97,-103.69 293.97,-103.69"/>
<polygon fill="black" stroke="black" points="290.47,-103.69 293.97,-113.69 297.47,-103.69 290.47,-103.69"/>
</g>
</g>
</svg>
