<?xml version="1.0" encoding="UTF-8" standalone="no"?>
<!DOCTYPE svg PUBLIC "-//W3C//DTD SVG 1.1//EN"
 "http://www.w3.org/Graphics/SVG/1.1/DTD/svg11.dtd">
<!-- Generated by graphviz version 2.47.3 (20210619.1520)
 -->
<!-- Title: dependencies Pages: 1 -->
<svg width="740pt" height="247pt"
 viewBox="0.00 0.00 740.00 246.80" xmlns="http://www.w3.org/2000/svg" xmlns:xlink="http://www.w3.org/1999/xlink">
<g id="graph0" class="graph" transform="scale(1 1) rotate(0) translate(4 242.8)">
<title>dependencies</title>
<polygon fill="white" stroke="transparent" points="-4,4 -4,-242.8 736,-242.8 736,4 -4,4"/>
<text text-anchor="middle" x="366" y="-8.2" font-family="sans-serif" font-size="14.00">dependencies</text>
<g id="clust1" class="cluster">
<title>cluster_ConstraintRuleModule</title>
<polygon fill="none" stroke="black" stroke-dasharray="1,5" points="8,-32.8 8,-230.8 724,-230.8 724,-32.8 8,-32.8"/>
</g>
<g id="clust7" class="cluster">
<title>cluster_ConstraintRuleModule_exports</title>
<polygon fill="none" stroke="black" points="16,-170.8 16,-222.8 716,-222.8 716,-170.8 16,-170.8"/>
</g>
<g id="clust2" class="cluster">
<title>cluster_ConstraintRuleModule_declarations</title>
<polygon fill="none" stroke="black" points="132,-40.8 132,-92.8 712,-92.8 712,-40.8 132,-40.8"/>
</g>
<g id="clust6" class="cluster">
<title>cluster_ConstraintRuleModule_imports</title>
<polygon fill="none" stroke="black" points="20,-40.8 20,-92.8 124,-92.8 124,-40.8 20,-40.8"/>
</g>
<!-- CRIconComponent -->
<g id="node1" class="node">
<title>CRIconComponent</title>
<polygon fill="#ffffb3" stroke="black" points="704.38,-84.8 579.62,-84.8 579.62,-48.8 704.38,-48.8 704.38,-84.8"/>
<text text-anchor="middle" x="642" y="-62.6" font-family="Times,serif" font-size="14.00">CRIconComponent</text>
</g>
<!-- ConstraintRuleModule -->
<g id="node4" class="node">
<title>ConstraintRuleModule</title>
<polygon fill="#8dd3c7" stroke="black" points="480.32,-149.8 477.32,-153.8 456.32,-153.8 453.32,-149.8 335.68,-149.8 335.68,-113.8 480.32,-113.8 480.32,-149.8"/>
<text text-anchor="middle" x="408" y="-127.6" font-family="Times,serif" font-size="14.00">ConstraintRuleModule</text>
</g>
<!-- CRIconComponent&#45;&gt;ConstraintRuleModule -->
<g id="edge1" class="edge">
<title>CRIconComponent&#45;&gt;ConstraintRuleModule</title>
<path fill="none" stroke="black" d="M588.88,-84.82C588.88,-102.17 588.88,-125.8 588.88,-125.8 588.88,-125.8 490.27,-125.8 490.27,-125.8"/>
<polygon fill="black" stroke="black" points="490.27,-122.3 480.27,-125.8 490.27,-129.3 490.27,-122.3"/>
</g>
<!-- ConstraintRuleAlertComponent -->
<g id="node2" class="node">
<title>ConstraintRuleAlertComponent</title>
<polygon fill="#ffffb3" stroke="black" points="561.37,-84.8 366.63,-84.8 366.63,-48.8 561.37,-48.8 561.37,-84.8"/>
<text text-anchor="middle" x="464" y="-62.6" font-family="Times,serif" font-size="14.00">ConstraintRuleAlertComponent</text>
</g>
<!-- ConstraintRuleAlertComponent&#45;&gt;ConstraintRuleModule -->
<g id="edge2" class="edge">
<title>ConstraintRuleAlertComponent&#45;&gt;ConstraintRuleModule</title>
<path fill="none" stroke="black" d="M423.36,-84.91C423.36,-84.91 423.36,-103.79 423.36,-103.79"/>
<polygon fill="black" stroke="black" points="419.86,-103.79 423.36,-113.79 426.86,-103.79 419.86,-103.79"/>
</g>
<!-- ConstraintRuleSidebarComponent -->
<g id="node3" class="node">
<title>ConstraintRuleSidebarComponent</title>
<polygon fill="#ffffb3" stroke="black" points="348.37,-84.8 139.63,-84.8 139.63,-48.8 348.37,-48.8 348.37,-84.8"/>
<text text-anchor="middle" x="244" y="-62.6" font-family="Times,serif" font-size="14.00">ConstraintRuleSidebarComponent</text>
</g>
<!-- ConstraintRuleSidebarComponent&#45;&gt;ConstraintRuleModule -->
<g id="edge3" class="edge">
<title>ConstraintRuleSidebarComponent&#45;&gt;ConstraintRuleModule</title>
<path fill="none" stroke="black" d="M342.14,-84.91C342.14,-84.91 342.14,-103.79 342.14,-103.79"/>
<polygon fill="black" stroke="black" points="338.64,-103.79 342.14,-113.79 345.64,-103.79 338.64,-103.79"/>
</g>
<!-- AlertModule  -->
<g id="node6" class="node">
<title>AlertModule </title>
<polygon fill="#fb8072" stroke="black" points="707.81,-214.8 616.19,-214.8 616.19,-178.8 707.81,-178.8 707.81,-214.8"/>
<text text-anchor="middle" x="662" y="-192.6" font-family="Times,serif" font-size="14.00">AlertModule </text>
</g>
<!-- ConstraintRuleModule&#45;&gt;AlertModule  -->
<g id="edge5" class="edge">
<title>ConstraintRuleModule&#45;&gt;AlertModule </title>
<path fill="none" stroke="black" stroke-dasharray="5,2" d="M480.29,-137.8C554.83,-137.8 660.27,-137.8 660.27,-137.8 660.27,-137.8 660.27,-168.78 660.27,-168.78"/>
<polygon fill="black" stroke="black" points="656.77,-168.78 660.27,-178.78 663.77,-168.78 656.77,-168.78"/>
</g>
<!-- CRIconComponent  -->
<g id="node7" class="node">
<title>CRIconComponent </title>
<polygon fill="#fb8072" stroke="black" points="598.38,-214.8 469.62,-214.8 469.62,-178.8 598.38,-178.8 598.38,-214.8"/>
<text text-anchor="middle" x="534" y="-192.6" font-family="Times,serif" font-size="14.00">CRIconComponent </text>
</g>
<!-- ConstraintRuleModule&#45;&gt;CRIconComponent  -->
<g id="edge6" class="edge">
<title>ConstraintRuleModule&#45;&gt;CRIconComponent </title>
<path fill="none" stroke="black" stroke-dasharray="5,2" d="M474.98,-149.91C474.98,-149.91 474.98,-168.79 474.98,-168.79"/>
<polygon fill="black" stroke="black" points="471.48,-168.79 474.98,-178.79 478.48,-168.79 471.48,-168.79"/>
</g>
<!-- ConstraintRuleAlertComponent  -->
<g id="node8" class="node">
<title>ConstraintRuleAlertComponent </title>
<polygon fill="#fb8072" stroke="black" points="452.37,-214.8 253.63,-214.8 253.63,-178.8 452.37,-178.8 452.37,-214.8"/>
<text text-anchor="middle" x="353" y="-192.6" font-family="Times,serif" font-size="14.00">ConstraintRuleAlertComponent </text>
</g>
<!-- ConstraintRuleModule&#45;&gt;ConstraintRuleAlertComponent  -->
<g id="edge7" class="edge">
<title>ConstraintRuleModule&#45;&gt;ConstraintRuleAlertComponent </title>
<path fill="none" stroke="black" stroke-dasharray="5,2" d="M394.01,-149.91C394.01,-149.91 394.01,-168.79 394.01,-168.79"/>
<polygon fill="black" stroke="black" points="390.51,-168.79 394.01,-178.79 397.51,-168.79 390.51,-168.79"/>
</g>
<!-- ConstraintRuleSidebarComponent  -->
<g id="node9" class="node">
<title>ConstraintRuleSidebarComponent </title>
<polygon fill="#fb8072" stroke="black" points="236.37,-214.8 23.63,-214.8 23.63,-178.8 236.37,-178.8 236.37,-214.8"/>
<text text-anchor="middle" x="130" y="-192.6" font-family="Times,serif" font-size="14.00">ConstraintRuleSidebarComponent </text>
</g>
<!-- ConstraintRuleModule&#45;&gt;ConstraintRuleSidebarComponent  -->
<g id="edge8" class="edge">
<title>ConstraintRuleModule&#45;&gt;ConstraintRuleSidebarComponent </title>
<path fill="none" stroke="black" stroke-dasharray="5,2" d="M335.62,-137.8C271.46,-137.8 187.88,-137.8 187.88,-137.8 187.88,-137.8 187.88,-168.78 187.88,-168.78"/>
<polygon fill="black" stroke="black" points="184.38,-168.78 187.88,-178.78 191.38,-168.78 184.38,-168.78"/>
</g>
<!-- AlertModule -->
<g id="node5" class="node">
<title>AlertModule</title>
<polygon fill="#8dd3c7" stroke="black" points="116.31,-84.8 113.31,-88.8 92.31,-88.8 89.31,-84.8 27.69,-84.8 27.69,-48.8 116.31,-48.8 116.31,-84.8"/>
<text text-anchor="middle" x="72" y="-62.6" font-family="Times,serif" font-size="14.00">AlertModule</text>
</g>
<!-- AlertModule&#45;&gt;ConstraintRuleModule -->
<g id="edge4" class="edge">
<title>AlertModule&#45;&gt;ConstraintRuleModule</title>
<path fill="none" stroke="black" d="M72,-84.82C72,-102.17 72,-125.8 72,-125.8 72,-125.8 325.51,-125.8 325.51,-125.8"/>
<polygon fill="black" stroke="black" points="325.51,-129.3 335.51,-125.8 325.51,-122.3 325.51,-129.3"/>
</g>
</g>
</svg>
