<?xml version="1.0" encoding="UTF-8" standalone="no"?>
<!DOCTYPE svg PUBLIC "-//W3C//DTD SVG 1.1//EN"
 "http://www.w3.org/Graphics/SVG/1.1/DTD/svg11.dtd">
<!-- Generated by graphviz version 2.47.3 (20210619.1520)
 -->
<!-- Title: dependencies Pages: 1 -->
<svg width="190pt" height="247pt"
 viewBox="0.00 0.00 190.00 246.80" xmlns="http://www.w3.org/2000/svg" xmlns:xlink="http://www.w3.org/1999/xlink">
<g id="graph0" class="graph" transform="scale(1 1) rotate(0) translate(4 242.8)">
<title>dependencies</title>
<polygon fill="white" stroke="transparent" points="-4,4 -4,-242.8 186,-242.8 186,4 -4,4"/>
<text text-anchor="middle" x="91" y="-8.2" font-family="sans-serif" font-size="14.00">dependencies</text>
<g id="clust1" class="cluster">
<title>cluster_DirectivesModule</title>
<polygon fill="none" stroke="black" stroke-dasharray="1,5" points="8,-32.8 8,-230.8 174,-230.8 174,-32.8 8,-32.8"/>
</g>
<g id="clust2" class="cluster">
<title>cluster_DirectivesModule_declarations</title>
<polygon fill="none" stroke="black" points="18,-40.8 18,-92.8 164,-92.8 164,-40.8 18,-40.8"/>
</g>
<g id="clust5" class="cluster">
<title>cluster_DirectivesModule_exports</title>
<polygon fill="none" stroke="black" points="16,-170.8 16,-222.8 166,-222.8 166,-170.8 16,-170.8"/>
</g>
<!-- AutoFocusDirective -->
<g id="node1" class="node">
<title>AutoFocusDirective</title>
<polygon fill="#ffffb3" stroke="black" points="155.52,-84.8 26.48,-84.8 26.48,-48.8 155.52,-48.8 155.52,-84.8"/>
<text text-anchor="middle" x="91" y="-62.6" font-family="Times,serif" font-size="14.00">AutoFocusDirective</text>
</g>
<!-- DirectivesModule -->
<g id="node2" class="node">
<title>DirectivesModule</title>
<polygon fill="#8dd3c7" stroke="black" points="149.58,-149.8 146.58,-153.8 125.58,-153.8 122.58,-149.8 32.42,-149.8 32.42,-113.8 149.58,-113.8 149.58,-149.8"/>
<text text-anchor="middle" x="91" y="-127.6" font-family="Times,serif" font-size="14.00">DirectivesModule</text>
</g>
<!-- AutoFocusDirective&#45;&gt;DirectivesModule -->
<g id="edge1" class="edge">
<title>AutoFocusDirective&#45;&gt;DirectivesModule</title>
<path fill="none" stroke="black" d="M91,-84.91C91,-84.91 91,-103.79 91,-103.79"/>
<polygon fill="black" stroke="black" points="87.5,-103.79 91,-113.79 94.5,-103.79 87.5,-103.79"/>
</g>
<!-- AutoFocusDirective  -->
<g id="node3" class="node">
<title>AutoFocusDirective </title>
<polygon fill="#fb8072" stroke="black" points="157.52,-214.8 24.48,-214.8 24.48,-178.8 157.52,-178.8 157.52,-214.8"/>
<text text-anchor="middle" x="91" y="-192.6" font-family="Times,serif" font-size="14.00">AutoFocusDirective </text>
</g>
<!-- DirectivesModule&#45;&gt;AutoFocusDirective  -->
<g id="edge2" class="edge">
<title>DirectivesModule&#45;&gt;AutoFocusDirective </title>
<path fill="none" stroke="black" stroke-dasharray="5,2" d="M91,-149.91C91,-149.91 91,-168.79 91,-168.79"/>
<polygon fill="black" stroke="black" points="87.5,-168.79 91,-178.79 94.5,-168.79 87.5,-168.79"/>
</g>
</g>
</svg>
