<?xml version="1.0" encoding="UTF-8" standalone="no"?>
<!DOCTYPE svg PUBLIC "-//W3C//DTD SVG 1.1//EN"
 "http://www.w3.org/Graphics/SVG/1.1/DTD/svg11.dtd">
<!-- Generated by graphviz version 2.47.3 (20210619.1520)
 -->
<!-- Title: dependencies Pages: 1 -->
<svg width="1606pt" height="247pt"
 viewBox="0.00 0.00 1606.00 246.80" xmlns="http://www.w3.org/2000/svg" xmlns:xlink="http://www.w3.org/1999/xlink">
<g id="graph0" class="graph" transform="scale(1 1) rotate(0) translate(4 242.8)">
<title>dependencies</title>
<polygon fill="white" stroke="transparent" points="-4,4 -4,-242.8 1602,-242.8 1602,4 -4,4"/>
<text text-anchor="middle" x="799" y="-8.2" font-family="sans-serif" font-size="14.00">dependencies</text>
<g id="clust1" class="cluster">
<title>cluster_PricingModule</title>
<polygon fill="none" stroke="black" stroke-dasharray="1,5" points="8,-32.8 8,-230.8 1590,-230.8 1590,-32.8 8,-32.8"/>
</g>
<g id="clust2" class="cluster">
<title>cluster_PricingModule_declarations</title>
<polygon fill="none" stroke="black" points="34,-40.8 34,-92.8 1565,-92.8 1565,-40.8 34,-40.8"/>
</g>
<g id="clust15" class="cluster">
<title>cluster_PricingModule_exports</title>
<polygon fill="none" stroke="black" points="16,-170.8 16,-222.8 1582,-222.8 1582,-170.8 16,-170.8"/>
</g>
<!-- AttributeValuePricePipe -->
<g id="node1" class="node">
<title>AttributeValuePricePipe</title>
<polygon fill="#ffffb3" stroke="black" points="1556.62,-84.8 1403.38,-84.8 1403.38,-48.8 1556.62,-48.8 1556.62,-84.8"/>
<text text-anchor="middle" x="1480" y="-62.6" font-family="Times,serif" font-size="14.00">AttributeValuePricePipe</text>
</g>
<!-- PricingModule -->
<g id="node12" class="node">
<title>PricingModule</title>
<polygon fill="#8dd3c7" stroke="black" points="826.99,-149.8 823.99,-153.8 802.99,-153.8 799.99,-149.8 727.01,-149.8 727.01,-113.8 826.99,-113.8 826.99,-149.8"/>
<text text-anchor="middle" x="777" y="-127.6" font-family="Times,serif" font-size="14.00">PricingModule</text>
</g>
<!-- AttributeValuePricePipe&#45;&gt;PricingModule -->
<g id="edge1" class="edge">
<title>AttributeValuePricePipe&#45;&gt;PricingModule</title>
<path fill="none" stroke="black" d="M1409.81,-84.97C1409.81,-103.89 1409.81,-130.8 1409.81,-130.8 1409.81,-130.8 837.18,-130.8 837.18,-130.8"/>
<polygon fill="black" stroke="black" points="837.18,-127.3 827.18,-130.8 837.18,-134.3 837.18,-127.3"/>
</g>
<!-- CartItemPricePipe -->
<g id="node2" class="node">
<title>CartItemPricePipe</title>
<polygon fill="#ffffb3" stroke="black" points="1384.91,-84.8 1265.09,-84.8 1265.09,-48.8 1384.91,-48.8 1384.91,-84.8"/>
<text text-anchor="middle" x="1325" y="-62.6" font-family="Times,serif" font-size="14.00">CartItemPricePipe</text>
</g>
<!-- CartItemPricePipe&#45;&gt;PricingModule -->
<g id="edge2" class="edge">
<title>CartItemPricePipe&#45;&gt;PricingModule</title>
<path fill="none" stroke="black" d="M1270.42,-85.1C1270.42,-103.07 1270.42,-127.8 1270.42,-127.8 1270.42,-127.8 837.03,-127.8 837.03,-127.8"/>
<polygon fill="black" stroke="black" points="837.03,-124.3 827.03,-127.8 837.03,-131.3 837.03,-124.3"/>
</g>
<!-- CartPricePipe -->
<g id="node3" class="node">
<title>CartPricePipe</title>
<polygon fill="#ffffb3" stroke="black" points="1246.75,-84.8 1153.25,-84.8 1153.25,-48.8 1246.75,-48.8 1246.75,-84.8"/>
<text text-anchor="middle" x="1200" y="-62.6" font-family="Times,serif" font-size="14.00">CartPricePipe</text>
</g>
<!-- CartPricePipe&#45;&gt;PricingModule -->
<g id="edge3" class="edge">
<title>CartPricePipe&#45;&gt;PricingModule</title>
<path fill="none" stroke="black" d="M1156.75,-84.84C1156.75,-101.53 1156.75,-123.8 1156.75,-123.8 1156.75,-123.8 837.04,-123.8 837.04,-123.8"/>
<polygon fill="black" stroke="black" points="837.04,-120.3 827.04,-123.8 837.04,-127.3 837.04,-120.3"/>
</g>
<!-- ConvertCurrencyPipe -->
<g id="node4" class="node">
<title>ConvertCurrencyPipe</title>
<polygon fill="#ffffb3" stroke="black" points="1135.08,-84.8 996.92,-84.8 996.92,-48.8 1135.08,-48.8 1135.08,-84.8"/>
<text text-anchor="middle" x="1066" y="-62.6" font-family="Times,serif" font-size="14.00">ConvertCurrencyPipe</text>
</g>
<!-- ConvertCurrencyPipe&#45;&gt;PricingModule -->
<g id="edge4" class="edge">
<title>ConvertCurrencyPipe&#45;&gt;PricingModule</title>
<path fill="none" stroke="black" d="M1090.43,-85.08C1090.43,-100.75 1090.43,-120.8 1090.43,-120.8 1090.43,-120.8 837.01,-120.8 837.01,-120.8"/>
<polygon fill="black" stroke="black" points="837.01,-117.3 827.01,-120.8 837.01,-124.3 837.01,-117.3"/>
</g>
<!-- LineItemPricePipe -->
<g id="node5" class="node">
<title>LineItemPricePipe</title>
<polygon fill="#ffffb3" stroke="black" points="978.47,-84.8 857.53,-84.8 857.53,-48.8 978.47,-48.8 978.47,-84.8"/>
<text text-anchor="middle" x="918" y="-62.6" font-family="Times,serif" font-size="14.00">LineItemPricePipe</text>
</g>
<!-- LineItemPricePipe&#45;&gt;PricingModule -->
<g id="edge5" class="edge">
<title>LineItemPricePipe&#45;&gt;PricingModule</title>
<path fill="none" stroke="black" d="M938.58,-84.92C938.58,-99.58 938.58,-117.8 938.58,-117.8 938.58,-117.8 837.24,-117.8 837.24,-117.8"/>
<polygon fill="black" stroke="black" points="837.24,-114.3 827.24,-117.8 837.24,-121.3 837.24,-114.3"/>
</g>
<!-- LocalCurrencyPipe -->
<g id="node6" class="node">
<title>LocalCurrencyPipe</title>
<polygon fill="#ffffb3" stroke="black" points="839.35,-84.8 714.65,-84.8 714.65,-48.8 839.35,-48.8 839.35,-84.8"/>
<text text-anchor="middle" x="777" y="-62.6" font-family="Times,serif" font-size="14.00">LocalCurrencyPipe</text>
</g>
<!-- LocalCurrencyPipe&#45;&gt;PricingModule -->
<g id="edge6" class="edge">
<title>LocalCurrencyPipe&#45;&gt;PricingModule</title>
<path fill="none" stroke="black" d="M777,-84.91C777,-84.91 777,-103.79 777,-103.79"/>
<polygon fill="black" stroke="black" points="773.5,-103.79 777,-113.79 780.5,-103.79 773.5,-103.79"/>
</g>
<!-- OptionPricePipe -->
<g id="node7" class="node">
<title>OptionPricePipe</title>
<polygon fill="#ffffb3" stroke="black" points="696.04,-84.8 587.96,-84.8 587.96,-48.8 696.04,-48.8 696.04,-84.8"/>
<text text-anchor="middle" x="642" y="-62.6" font-family="Times,serif" font-size="14.00">OptionPricePipe</text>
</g>
<!-- OptionPricePipe&#45;&gt;PricingModule -->
<g id="edge7" class="edge">
<title>OptionPricePipe&#45;&gt;PricingModule</title>
<path fill="none" stroke="black" d="M659.26,-84.92C659.26,-99.58 659.26,-117.8 659.26,-117.8 659.26,-117.8 716.72,-117.8 716.72,-117.8"/>
<polygon fill="black" stroke="black" points="716.72,-121.3 726.72,-117.8 716.72,-114.3 716.72,-121.3"/>
</g>
<!-- OrderLineItemPricePipe -->
<g id="node8" class="node">
<title>OrderLineItemPricePipe</title>
<polygon fill="#ffffb3" stroke="black" points="569.61,-84.8 416.39,-84.8 416.39,-48.8 569.61,-48.8 569.61,-84.8"/>
<text text-anchor="middle" x="493" y="-62.6" font-family="Times,serif" font-size="14.00">OrderLineItemPricePipe</text>
</g>
<!-- OrderLineItemPricePipe&#45;&gt;PricingModule -->
<g id="edge8" class="edge">
<title>OrderLineItemPricePipe&#45;&gt;PricingModule</title>
<path fill="none" stroke="black" d="M515.1,-85.08C515.1,-100.75 515.1,-120.8 515.1,-120.8 515.1,-120.8 716.81,-120.8 716.81,-120.8"/>
<polygon fill="black" stroke="black" points="716.81,-124.3 726.81,-120.8 716.81,-117.3 716.81,-124.3"/>
</g>
<!-- OrderPricePipe -->
<g id="node9" class="node">
<title>OrderPricePipe</title>
<polygon fill="#ffffb3" stroke="black" points="398.29,-84.8 295.71,-84.8 295.71,-48.8 398.29,-48.8 398.29,-84.8"/>
<text text-anchor="middle" x="347" y="-62.6" font-family="Times,serif" font-size="14.00">OrderPricePipe</text>
</g>
<!-- OrderPricePipe&#45;&gt;PricingModule -->
<g id="edge9" class="edge">
<title>OrderPricePipe&#45;&gt;PricingModule</title>
<path fill="none" stroke="black" d="M394.02,-84.84C394.02,-101.53 394.02,-123.8 394.02,-123.8 394.02,-123.8 716.93,-123.8 716.93,-123.8"/>
<polygon fill="black" stroke="black" points="716.93,-127.3 726.93,-123.8 716.93,-120.3 716.93,-127.3"/>
</g>
<!-- ProductPricePipe -->
<g id="node10" class="node">
<title>ProductPricePipe</title>
<polygon fill="#ffffb3" stroke="black" points="277.7,-84.8 164.3,-84.8 164.3,-48.8 277.7,-48.8 277.7,-84.8"/>
<text text-anchor="middle" x="221" y="-62.6" font-family="Times,serif" font-size="14.00">ProductPricePipe</text>
</g>
<!-- ProductPricePipe&#45;&gt;PricingModule -->
<g id="edge10" class="edge">
<title>ProductPricePipe&#45;&gt;PricingModule</title>
<path fill="none" stroke="black" d="M271.97,-85.1C271.97,-103.07 271.97,-127.8 271.97,-127.8 271.97,-127.8 716.73,-127.8 716.73,-127.8"/>
<polygon fill="black" stroke="black" points="716.73,-131.3 726.73,-127.8 716.73,-124.3 716.73,-131.3"/>
</g>
<!-- QuotePricePipe -->
<g id="node11" class="node">
<title>QuotePricePipe</title>
<polygon fill="#ffffb3" stroke="black" points="145.86,-84.8 42.14,-84.8 42.14,-48.8 145.86,-48.8 145.86,-84.8"/>
<text text-anchor="middle" x="94" y="-62.6" font-family="Times,serif" font-size="14.00">QuotePricePipe</text>
</g>
<!-- QuotePricePipe&#45;&gt;PricingModule -->
<g id="edge11" class="edge">
<title>QuotePricePipe&#45;&gt;PricingModule</title>
<path fill="none" stroke="black" d="M138.81,-84.97C138.81,-103.89 138.81,-130.8 138.81,-130.8 138.81,-130.8 716.92,-130.8 716.92,-130.8"/>
<polygon fill="black" stroke="black" points="716.92,-134.3 726.92,-130.8 716.92,-127.3 716.92,-134.3"/>
</g>
<!-- AttributeValuePricePipe  -->
<g id="node13" class="node">
<title>AttributeValuePricePipe </title>
<polygon fill="#fb8072" stroke="black" points="1573.62,-214.8 1416.38,-214.8 1416.38,-178.8 1573.62,-178.8 1573.62,-214.8"/>
<text text-anchor="middle" x="1495" y="-192.6" font-family="Times,serif" font-size="14.00">AttributeValuePricePipe </text>
</g>
<!-- PricingModule&#45;&gt;AttributeValuePricePipe  -->
<g id="edge12" class="edge">
<title>PricingModule&#45;&gt;AttributeValuePricePipe </title>
<path fill="none" stroke="black" stroke-dasharray="5,2" d="M827.18,-133.8C989.01,-133.8 1486.62,-133.8 1486.62,-133.8 1486.62,-133.8 1486.62,-168.58 1486.62,-168.58"/>
<polygon fill="black" stroke="black" points="1483.13,-168.58 1486.62,-178.58 1490.13,-168.58 1483.13,-168.58"/>
</g>
<!-- CartItemPricePipe  -->
<g id="node14" class="node">
<title>CartItemPricePipe </title>
<polygon fill="#fb8072" stroke="black" points="1398.41,-214.8 1275.59,-214.8 1275.59,-178.8 1398.41,-178.8 1398.41,-214.8"/>
<text text-anchor="middle" x="1337" y="-192.6" font-family="Times,serif" font-size="14.00">CartItemPricePipe </text>
</g>
<!-- PricingModule&#45;&gt;CartItemPricePipe  -->
<g id="edge13" class="edge">
<title>PricingModule&#45;&gt;CartItemPricePipe </title>
<path fill="none" stroke="black" stroke-dasharray="5,2" d="M827.06,-136.8C963.22,-136.8 1330.12,-136.8 1330.12,-136.8 1330.12,-136.8 1330.12,-168.8 1330.12,-168.8"/>
<polygon fill="black" stroke="black" points="1326.63,-168.8 1330.12,-178.8 1333.63,-168.8 1326.63,-168.8"/>
</g>
<!-- CartPricePipe  -->
<g id="node15" class="node">
<title>CartPricePipe </title>
<polygon fill="#fb8072" stroke="black" points="1257.75,-214.8 1160.25,-214.8 1160.25,-178.8 1257.75,-178.8 1257.75,-214.8"/>
<text text-anchor="middle" x="1209" y="-192.6" font-family="Times,serif" font-size="14.00">CartPricePipe </text>
</g>
<!-- PricingModule&#45;&gt;CartPricePipe  -->
<g id="edge14" class="edge">
<title>PricingModule&#45;&gt;CartPricePipe </title>
<path fill="none" stroke="black" stroke-dasharray="5,2" d="M827.19,-140.8C939.97,-140.8 1203.62,-140.8 1203.62,-140.8 1203.62,-140.8 1203.62,-168.77 1203.62,-168.77"/>
<polygon fill="black" stroke="black" points="1200.13,-168.77 1203.62,-178.77 1207.13,-168.77 1200.13,-168.77"/>
</g>
<!-- ConvertCurrencyPipe  -->
<g id="node16" class="node">
<title>ConvertCurrencyPipe </title>
<polygon fill="#fb8072" stroke="black" points="1142.58,-214.8 1001.42,-214.8 1001.42,-178.8 1142.58,-178.8 1142.58,-214.8"/>
<text text-anchor="middle" x="1072" y="-192.6" font-family="Times,serif" font-size="14.00">ConvertCurrencyPipe </text>
</g>
<!-- PricingModule&#45;&gt;ConvertCurrencyPipe  -->
<g id="edge15" class="edge">
<title>PricingModule&#45;&gt;ConvertCurrencyPipe </title>
<path fill="none" stroke="black" stroke-dasharray="5,2" d="M827.25,-143.8C905.05,-143.8 1045.82,-143.8 1045.82,-143.8 1045.82,-143.8 1045.82,-168.56 1045.82,-168.56"/>
<polygon fill="black" stroke="black" points="1042.32,-168.56 1045.82,-178.56 1049.32,-168.56 1042.32,-168.56"/>
</g>
<!-- LineItemPricePipe  -->
<g id="node17" class="node">
<title>LineItemPricePipe </title>
<polygon fill="#fb8072" stroke="black" points="983.47,-214.8 858.53,-214.8 858.53,-178.8 983.47,-178.8 983.47,-214.8"/>
<text text-anchor="middle" x="921" y="-192.6" font-family="Times,serif" font-size="14.00">LineItemPricePipe </text>
</g>
<!-- PricingModule&#45;&gt;LineItemPricePipe  -->
<g id="edge16" class="edge">
<title>PricingModule&#45;&gt;LineItemPricePipe </title>
<path fill="none" stroke="black" stroke-dasharray="5,2" d="M827.19,-146.8C860.71,-146.8 898.67,-146.8 898.67,-146.8 898.67,-146.8 898.67,-168.75 898.67,-168.75"/>
<polygon fill="black" stroke="black" points="895.17,-168.75 898.67,-178.75 902.17,-168.75 895.17,-168.75"/>
</g>
<!-- LocalCurrencyPipe  -->
<g id="node18" class="node">
<title>LocalCurrencyPipe </title>
<polygon fill="#fb8072" stroke="black" points="841.35,-214.8 712.65,-214.8 712.65,-178.8 841.35,-178.8 841.35,-214.8"/>
<text text-anchor="middle" x="777" y="-192.6" font-family="Times,serif" font-size="14.00">LocalCurrencyPipe </text>
</g>
<!-- PricingModule&#45;&gt;LocalCurrencyPipe  -->
<g id="edge17" class="edge">
<title>PricingModule&#45;&gt;LocalCurrencyPipe </title>
<path fill="none" stroke="black" stroke-dasharray="5,2" d="M777,-149.91C777,-149.91 777,-168.79 777,-168.79"/>
<polygon fill="black" stroke="black" points="773.5,-168.79 777,-178.79 780.5,-168.79 773.5,-168.79"/>
</g>
<!-- OptionPricePipe  -->
<g id="node19" class="node">
<title>OptionPricePipe </title>
<polygon fill="#fb8072" stroke="black" points="695.04,-214.8 582.96,-214.8 582.96,-178.8 695.04,-178.8 695.04,-214.8"/>
<text text-anchor="middle" x="639" y="-192.6" font-family="Times,serif" font-size="14.00">OptionPricePipe </text>
</g>
<!-- PricingModule&#45;&gt;OptionPricePipe  -->
<g id="edge18" class="edge">
<title>PricingModule&#45;&gt;OptionPricePipe </title>
<path fill="none" stroke="black" stroke-dasharray="5,2" d="M726.74,-146.8C681.97,-146.8 623.49,-146.8 623.49,-146.8 623.49,-146.8 623.49,-168.75 623.49,-168.75"/>
<polygon fill="black" stroke="black" points="619.99,-168.75 623.49,-178.75 626.99,-168.75 619.99,-168.75"/>
</g>
<!-- OrderLineItemPricePipe  -->
<g id="node20" class="node">
<title>OrderLineItemPricePipe </title>
<polygon fill="#fb8072" stroke="black" points="564.61,-214.8 407.39,-214.8 407.39,-178.8 564.61,-178.8 564.61,-214.8"/>
<text text-anchor="middle" x="486" y="-192.6" font-family="Times,serif" font-size="14.00">OrderLineItemPricePipe </text>
</g>
<!-- PricingModule&#45;&gt;OrderLineItemPricePipe  -->
<g id="edge19" class="edge">
<title>PricingModule&#45;&gt;OrderLineItemPricePipe </title>
<path fill="none" stroke="black" stroke-dasharray="5,2" d="M726.98,-143.8C638.96,-143.8 465.65,-143.8 465.65,-143.8 465.65,-143.8 465.65,-168.56 465.65,-168.56"/>
<polygon fill="black" stroke="black" points="462.15,-168.56 465.65,-178.56 469.15,-168.56 462.15,-168.56"/>
</g>
<!-- OrderPricePipe  -->
<g id="node21" class="node">
<title>OrderPricePipe </title>
<polygon fill="#fb8072" stroke="black" points="389.79,-214.8 284.21,-214.8 284.21,-178.8 389.79,-178.8 389.79,-214.8"/>
<text text-anchor="middle" x="337" y="-192.6" font-family="Times,serif" font-size="14.00">OrderPricePipe </text>
</g>
<!-- PricingModule&#45;&gt;OrderPricePipe  -->
<g id="edge20" class="edge">
<title>PricingModule&#45;&gt;OrderPricePipe </title>
<path fill="none" stroke="black" stroke-dasharray="5,2" d="M726.78,-140.8C612.5,-140.8 342.88,-140.8 342.88,-140.8 342.88,-140.8 342.88,-168.77 342.88,-168.77"/>
<polygon fill="black" stroke="black" points="339.38,-168.77 342.88,-178.77 346.38,-168.77 339.38,-168.77"/>
</g>
<!-- ProductPricePipe  -->
<g id="node22" class="node">
<title>ProductPricePipe </title>
<polygon fill="#fb8072" stroke="black" points="266.2,-214.8 149.8,-214.8 149.8,-178.8 266.2,-178.8 266.2,-214.8"/>
<text text-anchor="middle" x="208" y="-192.6" font-family="Times,serif" font-size="14.00">ProductPricePipe </text>
</g>
<!-- PricingModule&#45;&gt;ProductPricePipe  -->
<g id="edge21" class="edge">
<title>PricingModule&#45;&gt;ProductPricePipe </title>
<path fill="none" stroke="black" stroke-dasharray="5,2" d="M726.67,-136.8C588.81,-136.8 215.38,-136.8 215.38,-136.8 215.38,-136.8 215.38,-168.8 215.38,-168.8"/>
<polygon fill="black" stroke="black" points="211.88,-168.8 215.38,-178.8 218.88,-168.8 211.88,-168.8"/>
</g>
<!-- QuotePricePipe  -->
<g id="node23" class="node">
<title>QuotePricePipe </title>
<polygon fill="#fb8072" stroke="black" points="131.86,-214.8 24.14,-214.8 24.14,-178.8 131.86,-178.8 131.86,-214.8"/>
<text text-anchor="middle" x="78" y="-192.6" font-family="Times,serif" font-size="14.00">QuotePricePipe </text>
</g>
<!-- PricingModule&#45;&gt;QuotePricePipe  -->
<g id="edge22" class="edge">
<title>PricingModule&#45;&gt;QuotePricePipe </title>
<path fill="none" stroke="black" stroke-dasharray="5,2" d="M726.81,-133.8C568,-133.8 86.88,-133.8 86.88,-133.8 86.88,-133.8 86.88,-168.58 86.88,-168.58"/>
<polygon fill="black" stroke="black" points="83.38,-168.58 86.88,-178.58 90.38,-168.58 83.38,-168.58"/>
</g>
</g>
</svg>
