<?xml version="1.0" encoding="UTF-8" standalone="no"?>
<!DOCTYPE svg PUBLIC "-//W3C//DTD SVG 1.1//EN"
 "http://www.w3.org/Graphics/SVG/1.1/DTD/svg11.dtd">
<!-- Generated by graphviz version 2.47.3 (20210619.1520)
 -->
<!-- Title: dependencies Pages: 1 -->
<svg width="194pt" height="247pt"
 viewBox="0.00 0.00 194.00 246.80" xmlns="http://www.w3.org/2000/svg" xmlns:xlink="http://www.w3.org/1999/xlink">
<g id="graph0" class="graph" transform="scale(1 1) rotate(0) translate(4 242.8)">
<title>dependencies</title>
<polygon fill="white" stroke="transparent" points="-4,4 -4,-242.8 190,-242.8 190,4 -4,4"/>
<text text-anchor="middle" x="93" y="-8.2" font-family="sans-serif" font-size="14.00">dependencies</text>
<g id="clust1" class="cluster">
<title>cluster_TranslateTestingModule</title>
<polygon fill="none" stroke="black" stroke-dasharray="1,5" points="8,-32.8 8,-230.8 178,-230.8 178,-32.8 8,-32.8"/>
</g>
<g id="clust2" class="cluster">
<title>cluster_TranslateTestingModule_declarations</title>
<polygon fill="none" stroke="black" points="22,-40.8 22,-92.8 164,-92.8 164,-40.8 22,-40.8"/>
</g>
<g id="clust5" class="cluster">
<title>cluster_TranslateTestingModule_exports</title>
<polygon fill="none" stroke="black" points="20,-170.8 20,-222.8 166,-222.8 166,-170.8 20,-170.8"/>
</g>
<!-- TranslatePipeMock -->
<g id="node1" class="node">
<title>TranslatePipeMock</title>
<polygon fill="#ffffb3" stroke="black" points="155.63,-84.8 30.37,-84.8 30.37,-48.8 155.63,-48.8 155.63,-84.8"/>
<text text-anchor="middle" x="93" y="-62.6" font-family="Times,serif" font-size="14.00">TranslatePipeMock</text>
</g>
<!-- TranslateTestingModule -->
<g id="node2" class="node">
<title>TranslateTestingModule</title>
<polygon fill="#8dd3c7" stroke="black" points="169.63,-149.8 166.63,-153.8 145.63,-153.8 142.63,-149.8 16.37,-149.8 16.37,-113.8 169.63,-113.8 169.63,-149.8"/>
<text text-anchor="middle" x="93" y="-127.6" font-family="Times,serif" font-size="14.00">TranslateTestingModule</text>
</g>
<!-- TranslatePipeMock&#45;&gt;TranslateTestingModule -->
<g id="edge1" class="edge">
<title>TranslatePipeMock&#45;&gt;TranslateTestingModule</title>
<path fill="none" stroke="black" d="M93,-84.91C93,-84.91 93,-103.79 93,-103.79"/>
<polygon fill="black" stroke="black" points="89.5,-103.79 93,-113.79 96.5,-103.79 89.5,-103.79"/>
</g>
<!-- TranslatePipeMock  -->
<g id="node3" class="node">
<title>TranslatePipeMock </title>
<polygon fill="#fb8072" stroke="black" points="157.63,-214.8 28.37,-214.8 28.37,-178.8 157.63,-178.8 157.63,-214.8"/>
<text text-anchor="middle" x="93" y="-192.6" font-family="Times,serif" font-size="14.00">TranslatePipeMock </text>
</g>
<!-- TranslateTestingModule&#45;&gt;TranslatePipeMock  -->
<g id="edge2" class="edge">
<title>TranslateTestingModule&#45;&gt;TranslatePipeMock </title>
<path fill="none" stroke="black" stroke-dasharray="5,2" d="M93,-149.91C93,-149.91 93,-168.79 93,-168.79"/>
<polygon fill="black" stroke="black" points="89.5,-168.79 93,-178.79 96.5,-168.79 89.5,-168.79"/>
</g>
</g>
</svg>
