<?xml version="1.0" encoding="UTF-8" standalone="no"?>
<!DOCTYPE svg PUBLIC "-//W3C//DTD SVG 1.1//EN"
 "http://www.w3.org/Graphics/SVG/1.1/DTD/svg11.dtd">
<!-- Generated by graphviz version 2.47.3 (20210619.1520)
 -->
<!-- Title: dependencies Pages: 1 -->
<svg width="386pt" height="247pt"
 viewBox="0.00 0.00 386.00 246.80" xmlns="http://www.w3.org/2000/svg" xmlns:xlink="http://www.w3.org/1999/xlink">
<g id="graph0" class="graph" transform="scale(1 1) rotate(0) translate(4 242.8)">
<title>dependencies</title>
<polygon fill="white" stroke="transparent" points="-4,4 -4,-242.8 382,-242.8 382,4 -4,4"/>
<text text-anchor="middle" x="189" y="-8.2" font-family="sans-serif" font-size="14.00">dependencies</text>
<g id="clust1" class="cluster">
<title>cluster_TableModule</title>
<polygon fill="none" stroke="black" stroke-dasharray="1,5" points="8,-32.8 8,-230.8 370,-230.8 370,-32.8 8,-32.8"/>
</g>
<g id="clust2" class="cluster">
<title>cluster_TableModule_declarations</title>
<polygon fill="none" stroke="black" points="232,-40.8 232,-92.8 362,-92.8 362,-40.8 232,-40.8"/>
</g>
<g id="clust4" class="cluster">
<title>cluster_TableModule_imports</title>
<polygon fill="none" stroke="black" points="16,-40.8 16,-92.8 224,-92.8 224,-40.8 16,-40.8"/>
</g>
<g id="clust5" class="cluster">
<title>cluster_TableModule_exports</title>
<polygon fill="none" stroke="black" points="142,-170.8 142,-222.8 274,-222.8 274,-170.8 142,-170.8"/>
</g>
<!-- TableComponent -->
<g id="node1" class="node">
<title>TableComponent</title>
<polygon fill="#ffffb3" stroke="black" points="353.7,-84.8 240.3,-84.8 240.3,-48.8 353.7,-48.8 353.7,-84.8"/>
<text text-anchor="middle" x="297" y="-62.6" font-family="Times,serif" font-size="14.00">TableComponent</text>
</g>
<!-- TableModule -->
<g id="node2" class="node">
<title>TableModule</title>
<polygon fill="#8dd3c7" stroke="black" points="253.92,-149.8 250.92,-153.8 229.92,-153.8 226.92,-149.8 162.08,-149.8 162.08,-113.8 253.92,-113.8 253.92,-149.8"/>
<text text-anchor="middle" x="208" y="-127.6" font-family="Times,serif" font-size="14.00">TableModule</text>
</g>
<!-- TableComponent&#45;&gt;TableModule -->
<g id="edge1" class="edge">
<title>TableComponent&#45;&gt;TableModule</title>
<path fill="none" stroke="black" d="M247.05,-84.91C247.05,-84.91 247.05,-103.79 247.05,-103.79"/>
<polygon fill="black" stroke="black" points="243.55,-103.79 247.05,-113.79 250.55,-103.79 243.55,-103.79"/>
</g>
<!-- TableComponent  -->
<g id="node4" class="node">
<title>TableComponent </title>
<polygon fill="#fb8072" stroke="black" points="266.21,-214.8 149.79,-214.8 149.79,-178.8 266.21,-178.8 266.21,-214.8"/>
<text text-anchor="middle" x="208" y="-192.6" font-family="Times,serif" font-size="14.00">TableComponent </text>
</g>
<!-- TableModule&#45;&gt;TableComponent  -->
<g id="edge3" class="edge">
<title>TableModule&#45;&gt;TableComponent </title>
<path fill="none" stroke="black" stroke-dasharray="5,2" d="M208,-149.91C208,-149.91 208,-168.79 208,-168.79"/>
<polygon fill="black" stroke="black" points="204.5,-168.79 208,-178.79 211.5,-168.79 204.5,-168.79"/>
</g>
<!-- ConfigurationSummaryModule -->
<g id="node3" class="node">
<title>ConfigurationSummaryModule</title>
<polygon fill="#8dd3c7" stroke="black" points="216.03,-84.8 213.03,-88.8 192.03,-88.8 189.03,-84.8 23.97,-84.8 23.97,-48.8 216.03,-48.8 216.03,-84.8"/>
<text text-anchor="middle" x="120" y="-62.6" font-family="Times,serif" font-size="14.00">ConfigurationSummaryModule</text>
</g>
<!-- ConfigurationSummaryModule&#45;&gt;TableModule -->
<g id="edge2" class="edge">
<title>ConfigurationSummaryModule&#45;&gt;TableModule</title>
<path fill="none" stroke="black" d="M189.28,-84.91C189.28,-84.91 189.28,-103.79 189.28,-103.79"/>
<polygon fill="black" stroke="black" points="185.78,-103.79 189.28,-113.79 192.78,-103.79 185.78,-103.79"/>
</g>
</g>
</svg>
