<?xml version="1.0" encoding="UTF-8" standalone="no"?>
<!DOCTYPE svg PUBLIC "-//W3C//DTD SVG 1.1//EN"
 "http://www.w3.org/Graphics/SVG/1.1/DTD/svg11.dtd">
<!-- Generated by graphviz version 2.47.3 (20210619.1520)
 -->
<!-- Title: dependencies Pages: 1 -->
<svg width="780pt" height="247pt"
 viewBox="0.00 0.00 780.00 246.80" xmlns="http://www.w3.org/2000/svg" xmlns:xlink="http://www.w3.org/1999/xlink">
<g id="graph0" class="graph" transform="scale(1 1) rotate(0) translate(4 242.8)">
<title>dependencies</title>
<polygon fill="white" stroke="transparent" points="-4,4 -4,-242.8 776,-242.8 776,4 -4,4"/>
<text text-anchor="middle" x="386" y="-8.2" font-family="sans-serif" font-size="14.00">dependencies</text>
<g id="clust1" class="cluster">
<title>cluster_LineItemTableRowModule</title>
<polygon fill="none" stroke="black" stroke-dasharray="1,5" points="8,-32.8 8,-230.8 764,-230.8 764,-32.8 8,-32.8"/>
</g>
<g id="clust2" class="cluster">
<title>cluster_LineItemTableRowModule_declarations</title>
<polygon fill="none" stroke="black" points="140,-40.8 140,-92.8 756,-92.8 756,-40.8 140,-40.8"/>
</g>
<g id="clust6" class="cluster">
<title>cluster_LineItemTableRowModule_imports</title>
<polygon fill="none" stroke="black" points="16,-40.8 16,-92.8 132,-92.8 132,-40.8 16,-40.8"/>
</g>
<g id="clust7" class="cluster">
<title>cluster_LineItemTableRowModule_exports</title>
<polygon fill="none" stroke="black" points="136,-170.8 136,-222.8 533,-222.8 533,-170.8 136,-170.8"/>
</g>
<!-- AdditionalInformationComponent -->
<g id="node1" class="node">
<title>AdditionalInformationComponent</title>
<polygon fill="#ffffb3" stroke="black" points="748.08,-84.8 539.92,-84.8 539.92,-48.8 748.08,-48.8 748.08,-84.8"/>
<text text-anchor="middle" x="644" y="-62.6" font-family="Times,serif" font-size="14.00">AdditionalInformationComponent</text>
</g>
<!-- LineItemTableRowModule -->
<g id="node4" class="node">
<title>LineItemTableRowModule</title>
<polygon fill="#8dd3c7" stroke="black" points="425.68,-149.8 422.68,-153.8 401.68,-153.8 398.68,-149.8 256.32,-149.8 256.32,-113.8 425.68,-113.8 425.68,-149.8"/>
<text text-anchor="middle" x="341" y="-127.6" font-family="Times,serif" font-size="14.00">LineItemTableRowModule</text>
</g>
<!-- AdditionalInformationComponent&#45;&gt;LineItemTableRowModule -->
<g id="edge1" class="edge">
<title>AdditionalInformationComponent&#45;&gt;LineItemTableRowModule</title>
<path fill="none" stroke="black" d="M644,-84.91C644,-104.14 644,-131.8 644,-131.8 644,-131.8 435.81,-131.8 435.81,-131.8"/>
<polygon fill="black" stroke="black" points="435.81,-128.3 425.81,-131.8 435.81,-135.3 435.81,-128.3"/>
</g>
<!-- LineItemMenuComponent -->
<g id="node2" class="node">
<title>LineItemMenuComponent</title>
<polygon fill="#ffffb3" stroke="black" points="521.81,-84.8 356.19,-84.8 356.19,-48.8 521.81,-48.8 521.81,-84.8"/>
<text text-anchor="middle" x="439" y="-62.6" font-family="Times,serif" font-size="14.00">LineItemMenuComponent</text>
</g>
<!-- LineItemMenuComponent&#45;&gt;LineItemTableRowModule -->
<g id="edge2" class="edge">
<title>LineItemMenuComponent&#45;&gt;LineItemTableRowModule</title>
<path fill="none" stroke="black" d="M390.97,-84.91C390.97,-84.91 390.97,-103.79 390.97,-103.79"/>
<polygon fill="black" stroke="black" points="387.47,-103.79 390.97,-113.79 394.47,-103.79 387.47,-103.79"/>
</g>
<!-- LineItemTableRowComponent -->
<g id="node3" class="node">
<title>LineItemTableRowComponent</title>
<polygon fill="#ffffb3" stroke="black" points="338.46,-84.8 147.54,-84.8 147.54,-48.8 338.46,-48.8 338.46,-84.8"/>
<text text-anchor="middle" x="243" y="-62.6" font-family="Times,serif" font-size="14.00">LineItemTableRowComponent</text>
</g>
<!-- LineItemTableRowComponent&#45;&gt;LineItemTableRowModule -->
<g id="edge3" class="edge">
<title>LineItemTableRowComponent&#45;&gt;LineItemTableRowModule</title>
<path fill="none" stroke="black" d="M297.45,-84.91C297.45,-84.91 297.45,-103.79 297.45,-103.79"/>
<polygon fill="black" stroke="black" points="293.95,-103.79 297.45,-113.79 300.95,-103.79 293.95,-103.79"/>
</g>
<!-- LineItemMenuComponent  -->
<g id="node6" class="node">
<title>LineItemMenuComponent </title>
<polygon fill="#fb8072" stroke="black" points="525.31,-214.8 356.69,-214.8 356.69,-178.8 525.31,-178.8 525.31,-214.8"/>
<text text-anchor="middle" x="441" y="-192.6" font-family="Times,serif" font-size="14.00">LineItemMenuComponent </text>
</g>
<!-- LineItemTableRowModule&#45;&gt;LineItemMenuComponent  -->
<g id="edge5" class="edge">
<title>LineItemTableRowModule&#45;&gt;LineItemMenuComponent </title>
<path fill="none" stroke="black" stroke-dasharray="5,2" d="M391.09,-149.91C391.09,-149.91 391.09,-168.79 391.09,-168.79"/>
<polygon fill="black" stroke="black" points="387.59,-168.79 391.09,-178.79 394.59,-168.79 387.59,-168.79"/>
</g>
<!-- LineItemTableRowComponent  -->
<g id="node7" class="node">
<title>LineItemTableRowComponent </title>
<polygon fill="#fb8072" stroke="black" points="338.46,-214.8 143.54,-214.8 143.54,-178.8 338.46,-178.8 338.46,-214.8"/>
<text text-anchor="middle" x="241" y="-192.6" font-family="Times,serif" font-size="14.00">LineItemTableRowComponent </text>
</g>
<!-- LineItemTableRowModule&#45;&gt;LineItemTableRowComponent  -->
<g id="edge6" class="edge">
<title>LineItemTableRowModule&#45;&gt;LineItemTableRowComponent </title>
<path fill="none" stroke="black" stroke-dasharray="5,2" d="M297.32,-149.91C297.32,-149.91 297.32,-168.79 297.32,-168.79"/>
<polygon fill="black" stroke="black" points="293.82,-168.79 297.32,-178.79 300.82,-168.79 293.82,-168.79"/>
</g>
<!-- PricingModule -->
<g id="node5" class="node">
<title>PricingModule</title>
<polygon fill="#8dd3c7" stroke="black" points="123.99,-84.8 120.99,-88.8 99.99,-88.8 96.99,-84.8 24.01,-84.8 24.01,-48.8 123.99,-48.8 123.99,-84.8"/>
<text text-anchor="middle" x="74" y="-62.6" font-family="Times,serif" font-size="14.00">PricingModule</text>
</g>
<!-- PricingModule&#45;&gt;LineItemTableRowModule -->
<g id="edge4" class="edge">
<title>PricingModule&#45;&gt;LineItemTableRowModule</title>
<path fill="none" stroke="black" d="M74,-84.91C74,-104.14 74,-131.8 74,-131.8 74,-131.8 246.15,-131.8 246.15,-131.8"/>
<polygon fill="black" stroke="black" points="246.15,-135.3 256.15,-131.8 246.15,-128.3 246.15,-135.3"/>
</g>
</g>
</svg>
